<svg width="66" height="66" viewBox="0 0 66 66" fill="none" xmlns="http://www.w3.org/2000/svg">
<rect x="0.748413" y="0.116455" width="65.0961" height="65.0961" rx="6.50961" fill="#0066FF"/>
<path d="M32.7438 18.8376V20.6551C32.7438 22.2191 32.451 22.4727 31.4411 23.0225L22.0324 27.799V28.0104L31.3984 32.7027C32.451 33.2519 32.7438 33.4637 32.7438 35.0701V37.0988C32.7438 38.3668 32.3228 38.7897 31.2306 38.1981L17.0748 30.4196C16.2358 29.9549 15.9399 29.6165 15.9399 28.6448V27.2919C15.9399 26.3195 16.2358 25.939 17.0748 25.4743L31.2306 17.7383C32.3228 17.1467 32.7438 17.5692 32.7438 18.8376Z" fill="white"/>
<path d="M34.2379 25.5218L48.351 33.2576C49.2327 33.7226 49.5286 34.0607 49.5286 35.0328V36.3856C49.5286 37.4001 49.2327 37.7382 48.351 38.2032L34.2379 45.9389C33.103 46.5309 32.7247 46.1083 32.7247 44.8399V43.0224C32.7247 41.4584 33.0175 41.2045 34.0274 40.6974L43.4361 35.9206V35.6671L34.0701 30.9748C33.0175 30.4677 32.7247 30.2138 32.7247 28.6074V26.5784C32.7247 25.3101 33.103 24.8878 34.2379 25.5218Z" fill="white"/>
</svg>
