<svg width="40" height="40" viewBox="0 0 40 40" fill="none" xmlns="http://www.w3.org/2000/svg">
<rect width="40" height="40" rx="6.66667" fill="black"/>
<path d="M19.6589 11.5042V12.621C19.6589 13.5821 19.479 13.7379 18.8585 14.0757L13.077 17.0108V17.1407L18.8322 20.024C19.479 20.3615 19.6589 20.4916 19.6589 21.4787V22.7253C19.6589 23.5044 19.4002 23.7643 18.7291 23.4008L10.0307 18.6211C9.51516 18.3355 9.33331 18.1276 9.33331 17.5305V16.6992C9.33331 16.1017 9.51516 15.8679 10.0307 15.5823L18.7291 10.8287C19.4002 10.4652 19.6589 10.7248 19.6589 11.5042Z" fill="white"/>
<path d="M20.5775 15.6117L29.2497 20.3651C29.7915 20.6508 29.9733 20.8586 29.9733 21.4559V22.2872C29.9733 22.9106 29.7915 23.1183 29.2497 23.404L20.5775 28.1575C19.8802 28.5212 19.6477 28.2615 19.6477 27.4822V26.3653C19.6477 25.4043 19.8277 25.2483 20.4482 24.9367L26.2296 22.0015V21.8457L20.4744 18.9624C19.8277 18.6508 19.6477 18.4948 19.6477 17.5077V16.2609C19.6477 15.4815 19.8802 15.2221 20.5775 15.6117Z" fill="white"/>
</svg>
