<svg width="70" height="34" viewBox="0 0 70 34" fill="none" xmlns="http://www.w3.org/2000/svg">
<path d="M5.30695 17.0102C5.30695 22.9904 10.1603 27.8556 16.126 27.8556H26.2316C26.8663 27.8556 27.3585 27.2509 27.3585 26.7301V6.85583C27.3585 5.60034 28.3775 4.57858 29.6296 4.57858C30.4329 4.57858 31.1815 5.00553 31.5827 5.6933C31.633 5.77987 34.6926 11.0676 37.9316 16.6663C41.0263 22.0162 44.2269 27.5481 44.2772 27.635C44.4392 27.9118 44.7558 28.0905 45.0843 28.0905C45.6047 28.0905 46.0283 27.6662 46.0283 27.1442V6.85583C46.0283 5.60034 47.0467 4.57858 48.2994 4.57858C49.1027 4.57858 49.8513 5.00553 50.2522 5.6933C50.3031 5.77987 53.3601 11.0676 56.597 16.6666C59.6889 22.0153 62.8866 27.5458 62.938 27.635C63.1 27.9118 63.4166 28.0905 63.7451 28.0905C64.2655 28.0905 64.6885 27.6662 64.6885 27.1442V0.840658H60.7053V16.4979C60.7053 16.4979 53.488 4.04525 53.2543 3.64483C52.2007 1.8394 50.2028 0.69873 48.0764 0.69873C44.7456 0.69873 42.0445 3.4076 42.0445 6.74625V16.4979C42.0445 16.4979 34.8275 4.04525 34.5935 3.64483C33.5399 1.8394 31.542 0.69873 29.4156 0.69873C26.0848 0.69873 23.3837 3.4076 23.3837 6.74625V22.7701C23.3857 23.3533 22.9485 23.8615 22.3118 23.8627H16.1687C12.3937 23.8627 9.3332 20.7948 9.3332 17.0102C9.3332 13.2257 12.3937 10.1578 16.1687 10.1578H21.3143V6.16484H16.126C10.1603 6.16484 5.30695 11.03 5.30695 17.0102Z" fill="#9CA0AC"/>
<path d="M66.0165 0.840332V27.1442C66.0165 28.4 64.9981 29.4214 63.7453 29.4214C62.9421 29.4214 62.1934 28.9945 61.7922 28.307C61.7419 28.2204 58.6844 22.9324 55.448 17.3337C52.3556 11.9853 49.1588 6.4542 49.1064 6.36532C48.9451 6.08846 48.6279 5.90952 48.2994 5.90952C47.779 5.90952 47.356 6.33384 47.356 6.85551V27.1442C47.356 28.4 46.337 29.4214 45.0845 29.4214C44.2813 29.4214 43.5332 28.9945 43.1314 28.307C43.0812 28.2204 40.0216 22.9327 36.7826 17.3337C33.6875 11.9841 30.4872 6.45216 30.4366 6.36532C30.2747 6.08846 29.9581 5.90952 29.6296 5.90952C29.1092 5.90952 28.6862 6.33384 28.6862 6.85551V26.73C28.6862 28.0386 27.5393 29.1865 26.2319 29.1865H16.1262C9.42852 29.1865 3.97916 23.7245 3.97916 17.0099C3.97916 10.2959 9.42852 4.83355 16.1262 4.83355H21.3142V0.840332H16.1309C7.2222 0.840332 0 8.07953 0 17.0099C0 25.9406 7.2222 33.18 16.1309 33.18H26.3333C30.1982 33.1821 32.6836 30.9121 32.6784 26.7251V17.5021C32.6784 17.5021 39.9471 30.0433 40.1297 30.3555C41.1833 32.1606 43.1812 33.3013 45.3075 33.3013C48.6387 33.3013 51.3392 30.5924 51.3392 27.254V17.5021C51.3392 17.5021 58.5565 29.955 58.7902 30.3555C59.8441 32.1606 61.842 33.3013 63.9683 33.3013C67.2992 33.3013 70 30.5924 70 27.254V0.840332H66.0165Z" fill="#9CA0AC"/>
<path d="M3.97928 17.0104C3.97928 23.7247 9.42835 29.187 16.1261 29.187H26.2317C27.5391 29.187 28.6863 28.0391 28.6863 26.7302V6.856C28.6863 6.33433 29.1093 5.91 29.6297 5.91C29.9582 5.91 30.2748 6.08865 30.4367 6.36551C30.487 6.45265 33.6876 11.9846 36.7827 17.3342C40.0217 22.9329 43.081 28.2206 43.1316 28.3075C43.5331 28.995 44.2811 29.4216 45.0844 29.4216C46.3371 29.4216 47.3561 28.4002 47.3561 27.1444V6.856C47.3561 6.33433 47.7791 5.91 48.2995 5.91C48.628 5.91 48.9449 6.08865 49.1066 6.36551C49.1586 6.45469 52.3557 11.9855 55.4481 17.3339C58.6845 22.9326 61.7418 28.2206 61.7924 28.3075C62.1936 28.995 62.9419 29.4216 63.7452 29.4216C64.9979 29.4216 66.0166 28.4002 66.0166 27.1444V0.84082H64.6886V27.1444C64.6886 27.6663 64.2656 28.0907 63.7452 28.0907C63.4166 28.0907 63.1 27.912 62.9381 27.6351C62.8864 27.546 59.689 22.0154 56.5971 16.6668C53.3602 11.0678 50.3032 5.78003 50.2523 5.69347C49.8511 5.00569 49.1028 4.57874 48.2995 4.57874C47.0468 4.57874 46.0281 5.6005 46.0281 6.856V27.1444C46.0281 27.6663 45.6048 28.0907 45.0844 28.0907C44.7558 28.0907 44.4392 27.912 44.2773 27.6351C44.227 27.5483 41.0264 22.0163 37.9314 16.6665C34.6924 11.0678 31.6331 5.78003 31.5825 5.69347C31.1813 5.00569 30.433 4.57874 29.6297 4.57874C28.3772 4.57874 27.3585 5.6005 27.3585 6.856V26.7302C27.3585 27.251 26.8663 27.8558 26.2317 27.8558H16.1261C10.1604 27.8558 5.30702 22.9906 5.30702 17.0104C5.30702 11.0302 10.1604 6.16501 16.1261 6.16501H21.3141V4.83375H16.1261C9.42835 4.83375 3.97928 10.2961 3.97928 17.0104Z" fill="white"/>
</svg>
