<svg width="17" height="17" viewBox="0 0 17 17" fill="none" xmlns="http://www.w3.org/2000/svg">
<g clip-path="url(#clip0_3_1190)">
<path d="M3.87016 10.1318L3.31322 12.2109L1.27762 12.254C0.669281 11.1257 0.324219 9.83469 0.324219 8.46282C0.324219 7.13622 0.646844 5.88522 1.21872 4.78369H1.21916L3.03141 5.11594L3.82528 6.91732C3.65912 7.40172 3.56856 7.92172 3.56856 8.46282C3.56862 9.05007 3.675 9.61272 3.87016 10.1318Z" fill="#FBBB00"/>
<path d="M16.1844 6.96826C16.2763 7.4522 16.3242 7.95198 16.3242 8.46276C16.3242 9.03551 16.264 9.5942 16.1493 10.1331C15.7598 11.9669 14.7423 13.5683 13.3326 14.7014L13.3322 14.701L11.0495 14.5845L10.7265 12.5678C11.6618 12.0193 12.3928 11.1608 12.7779 10.1331H8.50009V6.96826H12.8403H16.1844Z" fill="#518EF8"/>
<path d="M13.3339 14.7011L13.3344 14.7015C11.9634 15.8035 10.2218 16.4628 8.32601 16.4628C5.27942 16.4628 2.63064 14.76 1.27942 12.254L3.87195 10.1318C4.54754 11.9349 6.28689 13.2184 8.32601 13.2184C9.20248 13.2184 10.0236 12.9815 10.7282 12.5679L13.3339 14.7011Z" fill="#28B446"/>
<path d="M13.433 2.30464L10.8414 4.42639C10.1122 3.97058 9.25016 3.70727 8.32666 3.70727C6.24138 3.70727 4.4695 5.04967 3.82775 6.91739L1.2216 4.78377H1.22116C2.5526 2.21673 5.23479 0.462891 8.32666 0.462891C10.2678 0.462891 12.0475 1.15433 13.433 2.30464Z" fill="#F14336"/>
</g>
<defs>
<clipPath id="clip0_3_1190">
<rect width="16" height="16" fill="white" transform="translate(0.324219 0.462891)"/>
</clipPath>
</defs>
</svg>
