<svg width="17" height="13" viewBox="0 0 17 13" fill="none" xmlns="http://www.w3.org/2000/svg">
<path d="M16.2812 10.4343H2.78125V0.934326C2.78125 0.658076 2.5575 0.434326 2.28125 0.434326H1.28125C1.005 0.434326 0.78125 0.658076 0.78125 0.934326V11.4343C0.78125 11.9865 1.22906 12.4343 1.78125 12.4343H16.2812C16.5575 12.4343 16.7812 12.2106 16.7812 11.9343V10.9343C16.7812 10.6581 16.5575 10.4343 16.2812 10.4343ZM15.2812 1.43433H11.5919C10.9237 1.43433 10.5891 2.24214 11.0616 2.71464L12.0741 3.72714L9.78125 6.02026L7.48844 3.72745C7.09781 3.33683 6.46469 3.33683 6.07438 3.72745L3.92781 5.87401C3.7325 6.06933 3.7325 6.38589 3.92781 6.5812L4.63469 7.28808C4.83 7.48339 5.14656 7.48339 5.34188 7.28808L6.78125 5.84839L9.07406 8.1412C9.46469 8.53183 10.0978 8.53183 10.4881 8.1412L13.4881 5.1412L14.5006 6.1537C14.9731 6.6262 15.7809 6.29151 15.7809 5.62339V1.93433C15.7812 1.65808 15.5575 1.43433 15.2812 1.43433Z" fill="#682EE6"/>
</svg>
