<svg width="76" height="46" viewBox="0 0 76 46" fill="none" xmlns="http://www.w3.org/2000/svg">
<path d="M6.04297 23.3242C6.11328 23.1836 6.23047 23.0723 6.39453 22.9902C6.57031 22.8965 6.75195 22.8203 6.93945 22.7617C7.13867 22.7031 7.32617 22.6621 7.50195 22.6387C7.67773 22.6152 7.79492 22.6035 7.85352 22.6035C8.11133 22.6035 8.26367 22.6562 8.31055 22.7617C8.36914 22.8672 8.39844 23.0547 8.39844 23.3242V34.6973C8.99609 33.9238 9.59375 33.0918 10.1914 32.2012C10.8008 31.2988 11.3398 30.3789 11.8086 29.4414L11.9844 29.0723L12.7051 29.6172L12.5293 29.9863C12.2949 30.4551 12.0137 30.9473 11.6855 31.4629C11.3691 31.9785 11.0293 32.5059 10.666 33.0449C10.3027 33.5723 9.92188 34.0996 9.52344 34.627C9.13672 35.1543 8.76172 35.6582 8.39844 36.1387V40.0586C8.39844 41.1367 8.29883 42.0508 8.09961 42.8008C7.91211 43.5625 7.64844 44.1777 7.30859 44.6465C6.96875 45.127 6.57031 45.4727 6.11328 45.6836C5.65625 45.8945 5.1582 46 4.61914 46C4.2793 46 3.96875 45.9473 3.6875 45.8418C3.39453 45.7363 3.14258 45.5781 2.93164 45.3672C2.7207 45.168 2.55664 44.9219 2.43945 44.6289C2.32227 44.3477 2.26367 44.0254 2.26367 43.6621C2.26367 43.1348 2.36328 42.6074 2.5625 42.0801C2.75 41.5527 3.01953 41.0078 3.37109 40.4453C3.71094 39.8828 4.10938 39.3027 4.56641 38.7051C5.02344 38.1191 5.51562 37.5039 6.04297 36.8594V29.2656H5.86719L5.51562 29.9863L4.79492 29.4414L4.9707 29.0723C5.26367 28.4746 5.46875 27.877 5.58594 27.2793C5.71484 26.6699 5.79688 26.1016 5.83203 25.5742C5.87891 25.0469 5.90234 24.584 5.90234 24.1855C5.91406 23.7871 5.96094 23.5 6.04297 23.3242ZM4.42578 44.9277C4.61328 44.9277 4.80078 44.8867 4.98828 44.8047C5.1875 44.7344 5.36328 44.5645 5.51562 44.2949C5.66797 44.0254 5.79102 43.627 5.88477 43.0996C5.99023 42.5723 6.04297 41.8574 6.04297 40.9551V38.3008C5.64453 38.793 5.28125 39.2676 4.95312 39.7246C4.61328 40.1934 4.32031 40.6445 4.07422 41.0781C3.82812 41.5234 3.63477 41.9512 3.49414 42.3613C3.35352 42.7715 3.2832 43.1699 3.2832 43.5566C3.2832 43.9199 3.38281 44.2363 3.58203 44.5059C3.78125 44.7871 4.0625 44.9277 4.42578 44.9277ZM8.75 19C8.75 19.4102 8.60938 19.7559 8.32812 20.0371C8.05859 20.3066 7.71875 20.4414 7.30859 20.4414C6.91016 20.4414 6.57031 20.3066 6.28906 20.0371C6.00781 19.7559 5.86719 19.4102 5.86719 19C5.86719 18.6016 6.00781 18.2617 6.28906 17.9805C6.57031 17.6992 6.91016 17.5586 7.30859 17.5586C7.71875 17.5586 8.05859 17.6992 8.32812 17.9805C8.60938 18.2617 8.75 18.6016 8.75 19ZM22.6543 32.6406C22.6543 33.3086 22.7129 33.8711 22.8301 34.3281C22.9473 34.7852 23.1523 35.0137 23.4453 35.0137C23.6211 35.0137 23.8086 34.9316 24.0078 34.7676C24.2188 34.5918 24.459 34.3105 24.7285 33.9238C24.998 33.5371 25.3027 33.0391 25.6426 32.4297C25.9941 31.8086 26.3926 31.0527 26.8379 30.1621L27.3652 29.0723L28.0859 29.6172L27.5586 30.707C27.0664 31.6914 26.6035 32.5762 26.1699 33.3613C25.748 34.1348 25.3438 34.791 24.957 35.3301C24.5703 35.8691 24.1895 36.2852 23.8145 36.5781C23.4512 36.8594 23.0879 37 22.7246 37C22.3379 37 22.0098 36.8945 21.7402 36.6836C21.4824 36.4727 21.2656 36.1855 21.0898 35.8223C20.9141 35.4473 20.7793 35.0195 20.6855 34.5391C20.5918 34.0469 20.5273 33.5254 20.4922 32.9746C20.2109 33.5371 19.9004 34.0645 19.5605 34.5566C19.2207 35.0371 18.8633 35.459 18.4883 35.8223C18.125 36.1855 17.7441 36.4727 17.3457 36.6836C16.9473 36.8945 16.5488 37 16.1504 37C15.5645 37 14.9961 36.877 14.4453 36.6309C13.8945 36.3848 13.4023 36.0098 12.9688 35.5059C12.5469 35.002 12.207 34.3691 11.9492 33.6074C11.6914 32.834 11.5625 31.9258 11.5625 30.8828C11.5625 29.6641 11.7207 28.5508 12.0371 27.543C12.3535 26.5234 12.7812 25.6504 13.3203 24.9238C13.8594 24.1855 14.4805 23.6172 15.1836 23.2188C15.8867 22.8086 16.625 22.6035 17.3984 22.6035C17.8672 22.6035 18.3008 22.709 18.6992 22.9199C19.0977 23.1309 19.4434 23.3887 19.7363 23.6934C20.041 23.9863 20.293 24.3027 20.4922 24.6426C20.6914 24.9707 20.8262 25.252 20.8965 25.4863L21.1074 23.7812C21.1309 23.5586 21.2363 23.3711 21.4238 23.2188C21.623 23.0664 21.8398 22.9492 22.0742 22.8672C22.3086 22.7734 22.5371 22.709 22.7598 22.6738C22.9824 22.627 23.1406 22.6035 23.2344 22.6035C23.375 22.6035 23.4688 22.627 23.5156 22.6738C23.5625 22.7207 23.5859 22.8145 23.5859 22.9551C23.5859 23.1309 23.5332 23.4883 23.4277 24.0273C23.334 24.5547 23.2285 25.2344 23.1113 26.0664C23.0059 26.8867 22.9004 27.8535 22.7949 28.9668C22.7012 30.0801 22.6543 31.3047 22.6543 32.6406ZM20.7207 28C20.7207 27.4609 20.6387 26.9336 20.4746 26.418C20.3105 25.8906 20.0879 25.4277 19.8066 25.0293C19.5254 24.6191 19.1973 24.291 18.8223 24.0449C18.459 23.7988 18.0723 23.6758 17.6621 23.6758C17.1582 23.6758 16.6836 23.8223 16.2383 24.1152C15.8047 24.3965 15.4238 24.8008 15.0957 25.3281C14.7793 25.8438 14.5273 26.4707 14.3398 27.209C14.1523 27.9355 14.0586 28.7383 14.0586 29.6172C14.0586 31.375 14.334 32.7168 14.8848 33.6426C15.4355 34.5566 16.168 35.0137 17.082 35.0137C17.4805 35.0137 17.8906 34.8555 18.3125 34.5391C18.7461 34.2109 19.1387 33.748 19.4902 33.1504C19.8535 32.541 20.1465 31.8027 20.3691 30.9355C20.6035 30.0684 20.7207 29.0898 20.7207 28ZM33.3066 26.9629C33.4473 26.7402 33.5645 26.4648 33.6582 26.1367C33.7637 25.8086 33.8164 25.4805 33.8164 25.1523C33.8164 24.7539 33.7168 24.4082 33.5176 24.1152C33.3184 23.8223 32.9609 23.6758 32.4453 23.6758C32.1055 23.6758 31.7598 23.7988 31.4082 24.0449C31.0566 24.291 30.7285 24.6602 30.4238 25.1523C30.1309 25.6445 29.8906 26.2656 29.7031 27.0156C29.5156 27.7656 29.4219 28.6445 29.4219 29.6523C29.4219 30.4492 29.5039 31.1758 29.668 31.832C29.832 32.4883 30.0723 33.0508 30.3887 33.5195C30.7051 33.9883 31.0859 34.3574 31.5312 34.627C31.9883 34.8848 32.498 35.0137 33.0605 35.0137C33.4707 35.0137 33.8867 34.9082 34.3086 34.6973C34.7422 34.4863 35.1758 34.1582 35.6094 33.7129C36.0547 33.2676 36.5117 32.6934 36.9805 31.9902C37.4492 31.2754 37.9297 30.4258 38.4219 29.4414L38.5977 29.0723L39.3184 29.6172L39.1426 29.9863C38.5098 31.2402 37.877 32.3125 37.2441 33.2031C36.623 34.0938 36.0078 34.8203 35.3984 35.3828C34.7891 35.9453 34.1914 36.3555 33.6055 36.6133C33.0312 36.8711 32.4746 37 31.9355 37C31.1738 37 30.4941 36.8418 29.8965 36.5254C29.2988 36.209 28.7949 35.7812 28.3848 35.2422C27.9746 34.6914 27.6582 34.0586 27.4355 33.3438C27.2246 32.6172 27.1191 31.8555 27.1191 31.0586C27.1191 29.793 27.2891 28.6445 27.6289 27.6133C27.9805 26.5703 28.4316 25.6797 28.9824 24.9414C29.5332 24.2031 30.1543 23.6289 30.8457 23.2188C31.5371 22.8086 32.2344 22.6035 32.9375 22.6035C33.4766 22.6035 33.9277 22.6797 34.291 22.832C34.6543 22.9844 34.9473 23.1777 35.1699 23.4121C35.3926 23.6465 35.5508 23.8984 35.6445 24.168C35.7383 24.4375 35.7852 24.6953 35.7852 24.9414C35.7852 25.1875 35.7324 25.4453 35.627 25.7148C35.5215 25.9727 35.3633 26.2188 35.1523 26.4531C34.9531 26.6758 34.7129 26.8809 34.4316 27.0684C34.1504 27.2441 33.834 27.373 33.4824 27.4551L33.3066 26.9629ZM53.3457 29.6172L53.1523 29.9863C52.7539 30.7832 52.2207 31.4219 51.5527 31.9023C50.8965 32.3711 50.1816 32.6758 49.4082 32.8164C49.1973 33.4141 48.9219 33.9707 48.582 34.4863C48.2539 34.9902 47.873 35.4297 47.4395 35.8047C47.0176 36.1797 46.5371 36.4727 45.998 36.6836C45.4707 36.8945 44.8965 37 44.2754 37C43.373 37 42.5586 36.8125 41.832 36.4375C41.1172 36.0508 40.5078 35.5352 40.0039 34.8906C39.5 34.2344 39.1133 33.4727 38.8438 32.6055C38.5742 31.7266 38.4395 30.7891 38.4395 29.793C38.4395 28.9258 38.5391 28.1406 38.7383 27.4375C38.9375 26.7227 39.1895 26.0898 39.4941 25.5391C39.7988 24.9766 40.1387 24.4902 40.5137 24.0801C40.8887 23.6582 41.2578 23.3125 41.6211 23.043C41.9844 22.7734 42.3125 22.5742 42.6055 22.4453C42.9102 22.3047 43.1387 22.2344 43.291 22.2344L43.5195 22.8496C43.0391 23.2012 42.6113 23.6934 42.2363 24.3262C41.9082 24.8652 41.6094 25.5801 41.3398 26.4707C41.082 27.3613 40.9531 28.4688 40.9531 29.793C40.9531 30.6016 41.0293 31.3867 41.1816 32.1484C41.334 32.9102 41.5566 33.584 41.8496 34.1699C42.1426 34.7559 42.5 35.2246 42.9219 35.5762C43.3555 35.9277 43.8418 36.1035 44.3809 36.1035C45.1191 36.1035 45.7285 35.8105 46.209 35.2246C46.7012 34.627 47.0645 33.8125 47.2988 32.7812C46.6895 32.6523 46.1094 32.4121 45.5586 32.0605C45.0078 31.709 44.5215 31.2754 44.0996 30.7598C43.6777 30.2324 43.3379 29.6289 43.0801 28.9492C42.834 28.2695 42.7109 27.5312 42.7109 26.7344C42.7109 26.0781 42.793 25.5039 42.957 25.0117C43.1328 24.5078 43.3613 24.0918 43.6426 23.7637C43.9238 23.4238 44.2461 23.1719 44.6094 23.0078C44.9844 22.832 45.377 22.7441 45.7871 22.7441C46.2676 22.7441 46.7598 22.8848 47.2637 23.166C47.7676 23.4355 48.2246 23.8457 48.6348 24.3965C49.0449 24.9355 49.3789 25.6152 49.6367 26.4355C49.8945 27.2559 50.0234 28.2109 50.0234 29.3008C50.0234 29.7109 50 30.1152 49.9531 30.5137C49.9062 30.9121 49.8359 31.2988 49.7422 31.6738C50.3047 31.5098 50.8145 31.2461 51.2715 30.8828C51.7402 30.5195 52.127 30.0391 52.4316 29.4414L52.625 29.0723L53.3457 29.6172ZM43.8711 26.5938C43.8711 27.2852 43.9648 27.9238 44.1523 28.5098C44.3516 29.084 44.6152 29.5938 44.9434 30.0391C45.2715 30.4727 45.6523 30.8359 46.0859 31.1289C46.5195 31.4219 46.9824 31.627 47.4746 31.7441C47.5332 31.416 47.5684 31.0762 47.5801 30.7246C47.6035 30.3613 47.6152 29.9922 47.6152 29.6172C47.6152 28.7852 47.5508 28.0352 47.4219 27.3672C47.293 26.6875 47.123 26.1133 46.9121 25.6445C46.7012 25.1641 46.4551 24.7949 46.1738 24.5371C45.8926 24.2793 45.6055 24.1504 45.3125 24.1504C44.9141 24.1504 44.5742 24.3672 44.293 24.8008C44.0117 25.2227 43.8711 25.8203 43.8711 26.5938ZM56.4219 34.7676C56.6328 34.7676 56.873 34.6328 57.1426 34.3633C57.4238 34.082 57.7227 33.7012 58.0391 33.2207C58.3555 32.7402 58.6895 32.1777 59.041 31.5332C59.3926 30.8887 59.7559 30.1914 60.1309 29.4414L60.3066 29.0723L61.0273 29.6172L60.8516 29.9863C60.2305 31.2285 59.6738 32.2949 59.1816 33.1855C58.7012 34.0645 58.25 34.791 57.8281 35.3652C57.4062 35.9277 57.002 36.3438 56.6152 36.6133C56.2402 36.8711 55.8535 37 55.4551 37C54.9277 37 54.4707 36.8301 54.084 36.4902C53.709 36.1387 53.3926 35.5586 53.1348 34.75C52.8887 33.9297 52.707 32.8516 52.5898 31.5156C52.4609 30.1797 52.3965 28.5273 52.3965 26.5586C52.3965 23.7695 52.5137 21.3789 52.748 19.3867C52.9824 17.3828 53.2988 15.7422 53.6973 14.4648C54.1074 13.1758 54.5762 12.2324 55.1035 11.6348C55.6426 11.0254 56.2051 10.7207 56.791 10.7207C57.1426 10.7207 57.4355 10.8672 57.6699 11.1602C57.916 11.4414 58.0391 11.957 58.0391 12.707C58.0391 13.293 57.9922 13.9609 57.8984 14.7109C57.8047 15.4609 57.6816 16.2637 57.5293 17.1191C57.377 17.9746 57.1953 18.8652 56.9844 19.791C56.7734 20.7051 56.5508 21.6191 56.3164 22.5332C56.082 23.4355 55.8418 24.3262 55.5957 25.2051C55.3496 26.0723 55.1094 26.8867 54.875 27.6484C54.9453 29.0898 55.0215 30.2734 55.1035 31.1992C55.1973 32.1133 55.3027 32.834 55.4199 33.3613C55.5488 33.8887 55.6953 34.2578 55.8594 34.4688C56.0234 34.668 56.2109 34.7676 56.4219 34.7676ZM56.8965 13.1289C56.8965 12.8828 56.8672 12.6895 56.8086 12.5488C56.75 12.4082 56.6562 12.3379 56.5273 12.3379C56.3984 12.3379 56.2695 12.5195 56.1406 12.8828C56.0117 13.2461 55.8828 13.7383 55.7539 14.3594C55.6367 14.9805 55.5254 15.7012 55.4199 16.5215C55.3262 17.3418 55.2383 18.2148 55.1562 19.1406C55.0742 20.0547 55.0098 20.9922 54.9629 21.9531C54.916 22.9141 54.8867 23.8398 54.875 24.7305C55.1562 23.6992 55.4141 22.6445 55.6484 21.5664C55.8945 20.4766 56.1113 19.4219 56.2988 18.4023C56.4863 17.3828 56.6328 16.4219 56.7383 15.5195C56.8438 14.6055 56.8965 13.8086 56.8965 13.1289ZM65.4922 35.0137C65.9023 35.0137 66.3184 34.9082 66.7402 34.6973C67.1738 34.4863 67.6074 34.1582 68.041 33.7129C68.4863 33.2676 68.9434 32.6934 69.4121 31.9902C69.8809 31.2754 70.3613 30.4258 70.8535 29.4414L71.0293 29.0723L71.75 29.6172L71.5742 29.9863C70.9414 31.2402 70.3086 32.3125 69.6758 33.2031C69.0547 34.0938 68.4395 34.8203 67.8301 35.3828C67.2324 35.9453 66.6406 36.3555 66.0547 36.6133C65.4688 36.8711 64.9062 37 64.3672 37C63.6055 37 62.9258 36.8418 62.3281 36.5254C61.7305 36.209 61.2266 35.7812 60.8164 35.2422C60.4062 34.6914 60.0957 34.0586 59.8848 33.3438C59.6621 32.6172 59.5508 31.8555 59.5508 31.0586C59.5508 29.793 59.7266 28.6445 60.0781 27.6133C60.418 26.5703 60.875 25.6797 61.4492 24.9414C62.0352 24.2031 62.6973 23.6289 63.4355 23.2188C64.1738 22.8086 64.9414 22.6035 65.7383 22.6035C66.5469 22.6035 67.1621 22.8086 67.584 23.2188C68.0176 23.6289 68.2344 24.1445 68.2344 24.7656C68.2344 25.3633 68.0645 25.9258 67.7246 26.4531C67.3848 26.9688 66.9219 27.4785 66.3359 27.9824C65.7617 28.4746 65.0938 28.9668 64.332 29.459C63.5703 29.9395 62.7676 30.4375 61.9238 30.9531C62.0059 31.5625 62.1465 32.1191 62.3457 32.623C62.5449 33.1152 62.7969 33.543 63.1016 33.9062C63.4062 34.2578 63.7578 34.5332 64.1562 34.7324C64.5547 34.9199 65 35.0137 65.4922 35.0137ZM66.0371 25.293C66.0371 24.8242 65.9082 24.4551 65.6504 24.1855C65.4043 23.916 65.0996 23.7812 64.7363 23.7812C64.4316 23.7812 64.1094 23.8926 63.7695 24.1152C63.4297 24.3262 63.1191 24.6719 62.8379 25.1523C62.5566 25.6211 62.3223 26.2246 62.1348 26.9629C61.9473 27.7012 61.8535 28.5977 61.8535 29.6523V30.0566C62.252 29.8457 62.6914 29.5703 63.1719 29.2305C63.6641 28.8789 64.1211 28.4922 64.543 28.0703C64.9648 27.6484 65.3164 27.2031 65.5977 26.7344C65.8906 26.2539 66.0371 25.7734 66.0371 25.293Z" fill="white"/>
</svg>
