<svg width="104" height="38" viewBox="0 0 104 38" fill="none" xmlns="http://www.w3.org/2000/svg">
<g filter="url(#filter0_d_1_4041)">
<path d="M4 0.177734V29.822H24.4156V0.177734H4ZM21.4628 26.8375H6.94221V3.16417H21.4628V26.8375V26.8375Z" fill="#9CA0AC"/>
<path d="M6.44221 26.8375V27.3375H6.94221H21.4628V26.8375H21.9628V3.16417V2.66417H21.4628H6.94221H6.44221V3.16417V26.8375ZM4.5 29.322V0.677734H23.9156V29.322H4.5Z" stroke="#9CA0AC"/>
</g>
<mask id="path-3-inside-1_1_4041" fill="white">
<path d="M36.5819 10.5131H36.5533C34.9246 7.86037 33.2804 5.51715 31.6221 3.15836H30.3568V13.4764H31.7533V6.07645H31.7674C33.4121 8.74479 35.0553 11.1036 36.7141 13.4764H37.9794V3.15836H36.5819V10.5131ZM46.6628 13.4764L43.4186 3.15836H41.9648L38.4442 13.4764H39.9568L40.8447 10.6609H43.9131L44.7136 13.4764H46.6628V13.4764ZM41.295 9.39253C41.7025 8.03625 42.1101 6.78549 42.4734 5.19152H42.503C42.9106 6.78499 43.2739 8.03625 43.6523 9.39253H41.295ZM48.3061 13.4764H50.0518V4.54429H52.7287V3.15836H45.6302V4.54429H48.3066V13.4764H48.3061ZM55.0262 3.15836H53.2955V13.4764H55.0262V3.15836ZM60.4096 13.6523C63.0719 13.6523 64.7302 11.2503 64.7302 8.16941C64.7302 5.28047 62.8965 2.98047 60.4096 2.98047C57.9216 2.98047 56.088 5.28047 56.088 8.16941C56.088 11.2508 57.7463 13.6523 60.4096 13.6523ZM60.4096 4.45534C62.1407 4.45534 62.8674 6.26791 62.8674 8.16992C62.8674 10.1448 62.2282 12.179 60.4096 12.179C58.591 12.179 57.9513 10.1453 57.9513 8.16992C57.9513 6.26791 58.6784 4.45534 60.4096 4.45534ZM67.187 6.07645H67.203C68.8463 8.74479 70.4895 11.1036 72.1483 13.4764H73.4136V3.15836H72.0171V10.5131H71.988C70.3593 7.86037 68.7151 5.51715 67.0568 3.15836H65.7915V13.4764H67.187V6.07645V6.07645ZM76.2779 10.6609H79.3483L80.1483 13.4764H82.097L78.8538 3.15836H77.399L73.8779 13.4764H75.3925L76.2779 10.6609ZM77.9091 5.19152H77.9377C78.3442 6.78499 78.7081 8.03625 79.0875 9.39253H76.7292C77.1377 8.03625 77.5437 6.78499 77.9091 5.19152ZM87.7844 12.09H84.3377V3.15836H82.6061V13.4764H87.7849V12.09H87.7844ZM35.1588 25.2775C34.7945 25.4694 34.4025 25.5287 33.9372 25.5287C32.4392 25.5287 30.9844 24.0835 30.9844 21.6373C30.9844 19.294 32.2498 17.8046 34.1121 17.8046C34.7814 17.8046 35.5086 18.0548 35.9739 18.3493L36.5407 17.1267C35.9593 16.6835 35.0136 16.3302 34.0679 16.3302C31.0136 16.3302 29.1221 18.792 29.1221 21.6071C29.1221 24.6438 31.0136 27.0026 34.0091 27.0026C34.9985 27.0026 35.9734 26.7388 36.905 26.3684V22.1076H35.1588V25.2775V25.2775ZM40.2347 22.1086H43.0865V20.7237H40.2347V17.8935H43.1447V16.5081H38.49V26.8262H43.6684V25.4393H40.2347V22.1086ZM48.5272 16.3307C46.0392 16.3307 44.2071 18.6302 44.2071 21.5197C44.2071 24.6001 45.8648 27.0031 48.5272 27.0031C51.189 27.0031 52.8468 24.6001 52.8468 21.5197C52.8468 18.6302 51.0141 16.3307 48.5272 16.3307ZM48.5272 25.5287C46.7081 25.5287 46.0684 23.4945 46.0684 21.5192C46.0684 19.6172 46.7955 17.8041 48.5272 17.8041C50.2578 17.8041 50.9849 19.6167 50.9849 21.5192C50.9849 23.4945 50.3458 25.5287 48.5272 25.5287ZM59.4804 25.2775C59.1171 25.4694 58.7236 25.5287 58.2583 25.5287C56.7598 25.5287 55.305 24.0835 55.305 21.6373C55.305 19.294 56.5709 17.8046 58.4337 17.8046C59.1025 17.8046 59.8302 18.0548 60.294 18.3493L60.8618 17.1267C60.2804 16.6835 59.3342 16.3302 58.388 16.3302C55.3347 16.3302 53.4437 18.792 53.4437 21.6071C53.4437 24.6438 55.3347 27.0026 58.3317 27.0026C59.3196 27.0026 60.294 26.7388 61.2262 26.3684V22.1076H59.4804V25.2775ZM68.703 19.486C68.703 17.48 67.495 16.5081 65.5468 16.5081H62.8262V26.8262H64.5714V22.9347H65.3568L67.0005 26.8262H68.993L66.9432 22.5508C68.0618 21.9468 68.703 20.7237 68.703 19.486ZM65.299 21.6076C65.1236 21.6227 64.7156 21.6378 64.5709 21.6523V17.894H65.3432C66.3744 17.894 66.9558 18.4971 66.9558 19.5589C66.9558 20.9438 66.1282 21.5639 65.299 21.6076ZM72.5432 16.5081L69.0221 26.8262H70.5342L71.4221 24.0101H74.4915L75.2935 26.8262H77.2412L73.997 16.5081H72.5432ZM71.8744 22.7438C72.2814 21.3865 72.6885 20.1337 73.0523 18.5423H73.0819C73.4885 20.1337 73.8523 21.3865 74.2312 22.7438H71.8744ZM90.0136 20.4729H86.391V16.5081H84.6598V26.8262H86.391V21.8579H90.0136V26.8262H91.7583V16.5362H90.0136V20.4729ZM93.4307 26.8252H95.1613V16.5081H93.4307V26.8252ZM101.271 25.5287C99.5839 25.5287 98.1578 24.0835 98.1578 21.6373C98.1578 19.294 99.4538 17.8046 101.228 17.8046C101.897 17.8046 102.596 18.1136 103.018 18.379L103.57 17.1272C102.973 16.7141 102.131 16.3307 101.228 16.3307C98.188 16.3307 96.3111 18.7925 96.3111 21.6076C96.3111 24.6443 98.2025 27.0031 101.2 27.0031C102.043 27.0031 102.974 26.6639 103.498 26.296L103.018 25.0131C102.567 25.3076 101.941 25.5287 101.271 25.5287ZM80.5136 16.5081H77.795V26.8262H79.5407V22.9347H80.3251C82.4066 22.9347 83.6709 21.2237 83.6709 19.486C83.6704 17.48 82.4643 16.5081 80.5136 16.5081ZM80.2669 21.6076C80.0925 21.6212 79.6714 21.6352 79.5402 21.6488V17.8935H80.3246C81.3437 17.8935 81.9257 18.4966 81.9257 19.5584C81.9252 20.9438 81.096 21.5639 80.2669 21.6076Z"/>
</mask>
<path d="M36.5819 10.5131H36.5533C34.9246 7.86037 33.2804 5.51715 31.6221 3.15836H30.3568V13.4764H31.7533V6.07645H31.7674C33.4121 8.74479 35.0553 11.1036 36.7141 13.4764H37.9794V3.15836H36.5819V10.5131ZM46.6628 13.4764L43.4186 3.15836H41.9648L38.4442 13.4764H39.9568L40.8447 10.6609H43.9131L44.7136 13.4764H46.6628V13.4764ZM41.295 9.39253C41.7025 8.03625 42.1101 6.78549 42.4734 5.19152H42.503C42.9106 6.78499 43.2739 8.03625 43.6523 9.39253H41.295ZM48.3061 13.4764H50.0518V4.54429H52.7287V3.15836H45.6302V4.54429H48.3066V13.4764H48.3061ZM55.0262 3.15836H53.2955V13.4764H55.0262V3.15836ZM60.4096 13.6523C63.0719 13.6523 64.7302 11.2503 64.7302 8.16941C64.7302 5.28047 62.8965 2.98047 60.4096 2.98047C57.9216 2.98047 56.088 5.28047 56.088 8.16941C56.088 11.2508 57.7463 13.6523 60.4096 13.6523ZM60.4096 4.45534C62.1407 4.45534 62.8674 6.26791 62.8674 8.16992C62.8674 10.1448 62.2282 12.179 60.4096 12.179C58.591 12.179 57.9513 10.1453 57.9513 8.16992C57.9513 6.26791 58.6784 4.45534 60.4096 4.45534ZM67.187 6.07645H67.203C68.8463 8.74479 70.4895 11.1036 72.1483 13.4764H73.4136V3.15836H72.0171V10.5131H71.988C70.3593 7.86037 68.7151 5.51715 67.0568 3.15836H65.7915V13.4764H67.187V6.07645V6.07645ZM76.2779 10.6609H79.3483L80.1483 13.4764H82.097L78.8538 3.15836H77.399L73.8779 13.4764H75.3925L76.2779 10.6609ZM77.9091 5.19152H77.9377C78.3442 6.78499 78.7081 8.03625 79.0875 9.39253H76.7292C77.1377 8.03625 77.5437 6.78499 77.9091 5.19152ZM87.7844 12.09H84.3377V3.15836H82.6061V13.4764H87.7849V12.09H87.7844ZM35.1588 25.2775C34.7945 25.4694 34.4025 25.5287 33.9372 25.5287C32.4392 25.5287 30.9844 24.0835 30.9844 21.6373C30.9844 19.294 32.2498 17.8046 34.1121 17.8046C34.7814 17.8046 35.5086 18.0548 35.9739 18.3493L36.5407 17.1267C35.9593 16.6835 35.0136 16.3302 34.0679 16.3302C31.0136 16.3302 29.1221 18.792 29.1221 21.6071C29.1221 24.6438 31.0136 27.0026 34.0091 27.0026C34.9985 27.0026 35.9734 26.7388 36.905 26.3684V22.1076H35.1588V25.2775V25.2775ZM40.2347 22.1086H43.0865V20.7237H40.2347V17.8935H43.1447V16.5081H38.49V26.8262H43.6684V25.4393H40.2347V22.1086ZM48.5272 16.3307C46.0392 16.3307 44.2071 18.6302 44.2071 21.5197C44.2071 24.6001 45.8648 27.0031 48.5272 27.0031C51.189 27.0031 52.8468 24.6001 52.8468 21.5197C52.8468 18.6302 51.0141 16.3307 48.5272 16.3307ZM48.5272 25.5287C46.7081 25.5287 46.0684 23.4945 46.0684 21.5192C46.0684 19.6172 46.7955 17.8041 48.5272 17.8041C50.2578 17.8041 50.9849 19.6167 50.9849 21.5192C50.9849 23.4945 50.3458 25.5287 48.5272 25.5287ZM59.4804 25.2775C59.1171 25.4694 58.7236 25.5287 58.2583 25.5287C56.7598 25.5287 55.305 24.0835 55.305 21.6373C55.305 19.294 56.5709 17.8046 58.4337 17.8046C59.1025 17.8046 59.8302 18.0548 60.294 18.3493L60.8618 17.1267C60.2804 16.6835 59.3342 16.3302 58.388 16.3302C55.3347 16.3302 53.4437 18.792 53.4437 21.6071C53.4437 24.6438 55.3347 27.0026 58.3317 27.0026C59.3196 27.0026 60.294 26.7388 61.2262 26.3684V22.1076H59.4804V25.2775ZM68.703 19.486C68.703 17.48 67.495 16.5081 65.5468 16.5081H62.8262V26.8262H64.5714V22.9347H65.3568L67.0005 26.8262H68.993L66.9432 22.5508C68.0618 21.9468 68.703 20.7237 68.703 19.486ZM65.299 21.6076C65.1236 21.6227 64.7156 21.6378 64.5709 21.6523V17.894H65.3432C66.3744 17.894 66.9558 18.4971 66.9558 19.5589C66.9558 20.9438 66.1282 21.5639 65.299 21.6076ZM72.5432 16.5081L69.0221 26.8262H70.5342L71.4221 24.0101H74.4915L75.2935 26.8262H77.2412L73.997 16.5081H72.5432ZM71.8744 22.7438C72.2814 21.3865 72.6885 20.1337 73.0523 18.5423H73.0819C73.4885 20.1337 73.8523 21.3865 74.2312 22.7438H71.8744ZM90.0136 20.4729H86.391V16.5081H84.6598V26.8262H86.391V21.8579H90.0136V26.8262H91.7583V16.5362H90.0136V20.4729ZM93.4307 26.8252H95.1613V16.5081H93.4307V26.8252ZM101.271 25.5287C99.5839 25.5287 98.1578 24.0835 98.1578 21.6373C98.1578 19.294 99.4538 17.8046 101.228 17.8046C101.897 17.8046 102.596 18.1136 103.018 18.379L103.57 17.1272C102.973 16.7141 102.131 16.3307 101.228 16.3307C98.188 16.3307 96.3111 18.7925 96.3111 21.6076C96.3111 24.6443 98.2025 27.0031 101.2 27.0031C102.043 27.0031 102.974 26.6639 103.498 26.296L103.018 25.0131C102.567 25.3076 101.941 25.5287 101.271 25.5287ZM80.5136 16.5081H77.795V26.8262H79.5407V22.9347H80.3251C82.4066 22.9347 83.6709 21.2237 83.6709 19.486C83.6704 17.48 82.4643 16.5081 80.5136 16.5081ZM80.2669 21.6076C80.0925 21.6212 79.6714 21.6352 79.5402 21.6488V17.8935H80.3246C81.3437 17.8935 81.9257 18.4966 81.9257 19.5584C81.9252 20.9438 81.096 21.5639 80.2669 21.6076Z" fill="#9CA0AC" stroke="#9CA0AC" stroke-width="2" mask="url(#path-3-inside-1_1_4041)"/>
<defs>
<filter id="filter0_d_1_4041" x="0" y="0.177734" width="28.4156" height="37.644" filterUnits="userSpaceOnUse" color-interpolation-filters="sRGB">
<feFlood flood-opacity="0" result="BackgroundImageFix"/>
<feColorMatrix in="SourceAlpha" type="matrix" values="0 0 0 0 0 0 0 0 0 0 0 0 0 0 0 0 0 0 127 0" result="hardAlpha"/>
<feOffset dy="4"/>
<feGaussianBlur stdDeviation="2"/>
<feComposite in2="hardAlpha" operator="out"/>
<feColorMatrix type="matrix" values="0 0 0 0 0 0 0 0 0 0 0 0 0 0 0 0 0 0 0.25 0"/>
<feBlend mode="normal" in2="BackgroundImageFix" result="effect1_dropShadow_1_4041"/>
<feBlend mode="normal" in="SourceGraphic" in2="effect1_dropShadow_1_4041" result="shape"/>
</filter>
</defs>
</svg>
