<svg width="71" height="38" viewBox="0 0 71 38" fill="none" xmlns="http://www.w3.org/2000/svg">
<path d="M21.9603 19.7236H17.1288L17.6781 11.3261L14.5406 19.7236H10.0543L17.1726 0.743094H21.9465L21.3953 9.25556L24.5923 0.743094H29.0786L21.9603 19.7236Z" fill="#9CA0AC"/>
<path d="M22.5425 19.7236L29.6609 0.743094H34.1472L27.0288 19.7236H22.5425" fill="#9CA0AC"/>
<path d="M9.53694 13.1812C3.26759 20.5433 -2.6462 30.3393 2.57743 34.8506C7.63893 39.2219 13.9658 36.6337 18.2795 34.9082C22.5933 33.1826 70.2747 12.4766 70.2747 12.4766C70.735 12.2466 70.6486 11.959 70.0734 12.1028C69.8413 12.1608 18.1645 26.1656 18.1645 26.1656C11.6075 28.0062 4.13034 23.9943 9.53694 13.1812Z" fill="#9CA0AC"/>
<path d="M39.9858 18.4583L39.6983 8.56541L46.4814 1.11798L39.9858 18.4583ZM54.4465 3.90646L55.652 0.743094H46.6622H46.6219H41.963L37.2622 6.43726L39.4322 0.743094H34.8884L27.8276 19.7236H32.3139L35.3283 11.7863L35.5349 19.7236L49.3006 19.6938L50.611 16.0425H45.377L47.0965 11.4412H51.4103L52.7374 7.90389H48.4237L49.9026 3.90646H54.4465Z" fill="#9CA0AC"/>
</svg>
