<svg width="131" height="38" viewBox="0 0 131 38" fill="none" xmlns="http://www.w3.org/2000/svg">
<path d="M28.5149 7.11674C28.4889 6.93447 28.3326 6.83031 28.2025 6.83031C28.0723 6.83031 25.4945 6.77824 25.4945 6.77824C25.4945 6.77824 23.3333 4.69516 23.125 4.46081C22.9167 4.25251 22.5 4.30458 22.3438 4.35666C22.3438 4.35666 21.9272 4.48685 21.2502 4.69516C21.146 4.33062 20.9638 3.88797 20.7294 3.41927C19.9743 1.96112 18.8286 1.17997 17.4746 1.17997C17.3705 1.17997 17.2923 1.17997 17.1882 1.20601C17.1361 1.15393 17.1101 1.10185 17.058 1.07581C16.4591 0.450891 15.704 0.138429 14.7927 0.164468C13.0481 0.216544 11.3035 1.49243 9.87139 3.73174C8.88193 5.32008 8.12681 7.299 7.89247 8.83527C5.8875 9.4602 4.48143 9.90285 4.42935 9.90285C3.41385 10.2153 3.38781 10.2413 3.25762 11.2048C3.20554 11.9338 0.549622 32.4782 0.549622 32.4782L22.8385 36.3319L32.4988 33.9363C32.4728 33.9363 28.541 7.29901 28.5149 7.11674ZM20.1305 5.0597C19.6098 5.21593 19.0369 5.3982 18.412 5.6065C18.412 4.7212 18.2818 3.47135 17.8912 2.42981C19.2192 2.63812 19.8702 4.14835 20.1305 5.0597ZM17.2403 5.945C16.0685 6.30954 14.7927 6.70012 13.5168 7.0907C13.8813 5.71066 14.5583 4.35666 15.3915 3.44531C15.704 3.10681 16.1467 2.74227 16.6414 2.53397C17.1622 3.54947 17.2663 4.98158 17.2403 5.945ZM14.8447 1.3362C15.2613 1.3362 15.5998 1.41431 15.8863 1.62262C15.4176 1.85697 14.9489 2.22151 14.5323 2.6902C13.4126 3.88797 12.5533 5.7367 12.2148 7.53335C11.1473 7.87185 10.1057 8.18431 9.16835 8.47073C9.79327 5.63254 12.1628 1.41431 14.8447 1.3362Z" fill="#95BF47"/>
<path d="M28.2035 6.83032C28.0733 6.83032 25.4955 6.77824 25.4955 6.77824C25.4955 6.77824 23.3343 4.69517 23.126 4.46082C23.0478 4.3827 22.9437 4.33063 22.8395 4.33063V36.3319L32.4998 33.9363C32.4998 33.9363 28.568 7.29901 28.542 7.11674C28.4899 6.93447 28.3337 6.83032 28.2035 6.83032Z" fill="#5E8E3E"/>
<path d="M17.4753 11.8035L16.3557 15.9957C16.3557 15.9957 15.1058 15.4228 13.6216 15.527C11.4344 15.6572 11.4344 17.0372 11.4344 17.3757C11.5646 19.2505 16.4859 19.6671 16.7723 24.0676C16.9806 27.5307 14.9496 29.9002 11.9812 30.0825C8.43998 30.2647 6.48709 28.1817 6.48709 28.1817L7.24221 24.9789C7.24221 24.9789 9.22113 26.4631 10.7834 26.359C11.7989 26.3069 12.1895 25.4476 12.1374 24.8748C11.9812 22.4272 7.97128 22.5834 7.7109 18.5474C7.50259 15.1624 9.71586 11.7514 14.6111 11.4389C16.5119 11.3087 17.4753 11.8035 17.4753 11.8035Z" fill="white"/>
<path d="M45.5708 20.7341C44.4511 20.1352 43.8783 19.6144 43.8783 18.9114C43.8783 18.0261 44.6855 17.4532 45.9353 17.4532C47.3935 17.4532 48.6954 18.0521 48.6954 18.0521L49.7109 14.9275C49.7109 14.9275 48.7735 14.1984 46.0134 14.1984C42.1597 14.1984 39.4778 16.4117 39.4778 19.5103C39.4778 21.2809 40.7276 22.6088 42.3941 23.5723C43.7481 24.3274 44.2168 24.8742 44.2168 25.6814C44.2168 26.5146 43.5398 27.1916 42.2899 27.1916C40.4412 27.1916 38.6706 26.2282 38.6706 26.2282L37.577 29.3528C37.577 29.3528 39.1913 30.4464 41.9254 30.4464C45.8832 30.4464 48.7475 28.4935 48.7475 24.9783C48.7214 23.0775 47.2893 21.7235 45.5708 20.7341Z" fill="black"/>
<path d="M61.3494 14.1466C59.3965 14.1466 57.8602 15.084 56.6885 16.4901L56.6364 16.464L58.3289 7.61096H53.9284L49.632 30.1603H54.0325L55.4907 22.4529C56.0635 19.5366 57.5738 17.7399 58.9799 17.7399C59.9693 17.7399 60.3599 18.4169 60.3599 19.3803C60.3599 19.9792 60.3078 20.7343 60.1776 21.3332L58.5112 30.1603H62.9117L64.6302 21.0468C64.8125 20.0834 64.9427 18.9377 64.9427 18.1565C64.9687 15.6568 63.6668 14.1466 61.3494 14.1466Z" fill="black"/>
<path d="M74.9429 14.1465C69.631 14.1465 66.1158 18.9376 66.1158 24.2755C66.1158 27.6865 68.225 30.4466 72.1828 30.4466C77.3905 30.4466 80.9057 25.7857 80.9057 20.3177C80.9317 17.167 79.083 14.1465 74.9429 14.1465ZM72.7817 27.0877C71.2715 27.0877 70.6465 25.8118 70.6465 24.1974C70.6465 21.6717 71.9485 17.5576 74.344 17.5576C75.9063 17.5576 76.4271 18.9116 76.4271 20.2135C76.4271 22.9215 75.0991 27.0877 72.7817 27.0877Z" fill="black"/>
<path d="M92.2056 14.1465C89.2373 14.1465 87.5448 16.7764 87.5448 16.7764H87.4927L87.7531 14.4069H83.8473C83.665 15.9953 83.3005 18.4429 82.962 20.2656L79.8895 36.4094H84.29L85.5138 29.8738H85.6179C85.6179 29.8738 86.5293 30.4466 88.1957 30.4466C93.3774 30.4466 96.7624 25.1348 96.7624 19.7709C96.7624 16.8025 95.4344 14.1465 92.2056 14.1465ZM87.9874 27.1397C86.8417 27.1397 86.1647 26.4888 86.1647 26.4888L86.8938 22.3747C87.4146 19.6146 88.8467 17.7919 90.383 17.7919C91.737 17.7919 92.1536 19.0418 92.1536 20.2135C92.1536 23.0777 90.4611 27.1397 87.9874 27.1397Z" fill="black"/>
<path d="M103.063 7.81915C101.657 7.81915 100.537 8.93881 100.537 10.3709C100.537 11.6728 101.37 12.5842 102.62 12.5842H102.672C104.052 12.5842 105.224 11.6468 105.25 10.0324C105.25 8.75654 104.391 7.81915 103.063 7.81915Z" fill="black"/>
<path d="M96.8925 30.1341H101.293L104.287 14.511H99.8608L96.8925 30.1341Z" fill="black"/>
<path d="M115.511 14.485H112.438L112.594 13.7559C112.855 12.2457 113.74 10.9177 115.224 10.9177C116.005 10.9177 116.63 11.1521 116.63 11.1521L117.489 7.68898C117.489 7.68898 116.734 7.2984 115.094 7.2984C113.532 7.2984 111.969 7.74106 110.772 8.75655C109.261 10.0324 108.558 11.8812 108.22 13.7559L108.09 14.485H106.033L105.382 17.8179H107.439L105.095 30.1602H109.496L111.839 17.8179H114.886L115.511 14.485Z" fill="black"/>
<path d="M126.135 14.511C126.135 14.511 123.375 21.4633 122.151 25.2649H122.099C122.021 24.0411 121.005 14.511 121.005 14.511H116.37L119.026 28.8582C119.078 29.1706 119.052 29.3789 118.922 29.5873C118.401 30.5767 117.542 31.5401 116.526 32.2432C115.693 32.8421 114.756 33.2326 114.027 33.493L115.251 37.2426C116.136 37.0603 118.011 36.3052 119.573 34.847C121.578 32.9723 123.453 30.0559 125.354 26.0981L130.743 14.511H126.135Z" fill="black"/>
</svg>
