<svg width="15" height="16" viewBox="0 0 15 16" fill="none" xmlns="http://www.w3.org/2000/svg">
<path d="M11.5238 5V4C11.5238 1.79437 9.64396 0 7.33333 0C5.02268 0 3.14286 1.79437 3.14286 4V5H0V13.5C0 14.8807 1.17258 16 2.61905 16H12.0476C13.4941 16 14.6667 14.8807 14.6667 13.5V5H11.5238ZM5.2381 4C5.2381 2.89719 6.17801 2 7.33333 2C8.48866 2 9.42857 2.89719 9.42857 4V5H5.2381V4ZM10.4762 7.75C10.0422 7.75 9.69048 7.41422 9.69048 7C9.69048 6.58578 10.0422 6.25 10.4762 6.25C10.9101 6.25 11.2619 6.58578 11.2619 7C11.2619 7.41422 10.9101 7.75 10.4762 7.75ZM4.19048 7.75C3.75653 7.75 3.40476 7.41422 3.40476 7C3.40476 6.58578 3.75653 6.25 4.19048 6.25C4.62442 6.25 4.97619 6.58578 4.97619 7C4.97619 7.41422 4.62442 7.75 4.19048 7.75Z" fill="#682EE6"/>
</svg>
