<svg width="131" height="23" viewBox="0 0 131 23" fill="none" xmlns="http://www.w3.org/2000/svg">
<g clip-path="url(#clip0_3_72)">
<path d="M47.9219 11.2557C47.9219 8.77847 46.1328 6.65906 43.4354 6.65906C40.7379 6.65906 38.8938 8.80599 38.8938 11.2557C38.8938 13.6779 40.6829 15.7973 43.3803 15.7973C44.5088 15.7973 45.3896 15.467 46.1878 14.8339L47.3714 15.9074L48.032 15.1642L46.8484 14.2009C47.5365 13.3751 47.9219 12.3292 47.9219 11.2557ZM46.1328 13.5403L44.5088 12.0814L43.8482 12.8246L45.4722 14.2284C44.9217 14.6137 44.2336 14.889 43.4629 14.889C41.4536 14.889 39.9948 13.265 39.9948 11.2282C39.9948 9.21886 41.4536 7.56738 43.4629 7.56738C45.4722 7.56738 46.931 9.19134 46.931 11.2282C46.931 12.1365 46.6558 12.9347 46.1328 13.5403ZM56.2894 11.9163C56.2894 13.8155 55.271 14.8339 53.592 14.8339C51.913 14.8339 50.8946 13.7605 50.8946 11.8612V6.74163H49.8762V11.9163C49.8762 14.4486 51.39 15.7422 53.592 15.7422C55.794 15.7422 57.3078 14.3935 57.3078 11.8062V6.74163H56.2894V11.9163ZM116.156 14.889C114.202 14.889 112.743 13.265 112.743 11.2282C112.743 9.21886 114.202 7.56738 116.156 7.56738C117.339 7.56738 118.165 8.06282 118.963 8.80599L119.624 8.06282C118.716 7.20955 117.78 6.65906 116.156 6.65906C113.569 6.65906 111.669 8.72342 111.669 11.2557C111.669 13.788 113.569 15.7973 116.101 15.7973C117.725 15.7973 118.743 15.1917 119.652 14.2284L118.991 13.6228C118.193 14.3935 117.394 14.889 116.156 14.889ZM122.459 14.7238V11.641H127.276V10.7327H122.459V7.705H127.854V6.79669H121.441V15.6872H127.909V14.7238H122.459ZM98.3473 6.8242H95.0443V15.6872H96.0628V12.5494H98.2097C100.109 12.5494 101.678 11.5309 101.678 9.63174C101.678 7.87015 100.384 6.8242 98.3473 6.8242ZM100.659 9.68679C100.659 10.8704 99.696 11.641 98.2372 11.641H96.0352V7.76006H98.2923C99.696 7.70501 100.659 8.39313 100.659 9.68679ZM34.4072 10.7327C32.453 10.3474 31.985 9.82441 31.985 8.99867C31.985 8.20045 32.7282 7.5949 33.8843 7.5949C34.7926 7.5949 35.6183 7.87015 36.4716 8.55827L37.0221 7.76006C36.1138 7.01689 35.233 6.68658 33.9393 6.68658C32.2603 6.68658 31.0217 7.705 31.0217 9.10877C31.0217 10.5676 31.985 11.2557 33.9943 11.6961C35.8385 12.0814 36.3064 12.5494 36.3064 13.3751C36.3064 14.2834 35.5082 14.889 34.3522 14.889C33.1136 14.889 32.2052 14.5036 31.3244 13.6504L30.7189 14.3935C31.7924 15.3569 32.9209 15.7973 34.3246 15.7973C36.0587 15.7973 37.3524 14.7789 37.3524 13.265C37.2698 11.8612 36.3615 11.2007 34.4072 10.7327ZM79.4928 11.641H84.3097V10.7327H79.4928V7.705H84.8877V6.79669H78.4744V15.6872H84.9427V14.7238H79.4928V11.641ZM90.1724 10.7327C88.2182 10.3474 87.7503 9.82441 87.7503 8.99867C87.7503 8.20045 88.4934 7.5949 89.6495 7.5949C90.5578 7.5949 91.3835 7.87015 92.2368 8.55827L92.7873 7.76006C91.879 7.01689 90.9982 6.68658 89.7045 6.68658C88.0255 6.68658 86.7869 7.705 86.7869 9.10877C86.7869 10.5676 87.7503 11.2557 89.7596 11.6961C91.6037 12.0814 92.0717 12.5494 92.0717 13.3751C92.0717 14.2834 91.2734 14.889 90.1174 14.889C88.8788 14.889 87.9705 14.5036 87.0897 13.6504L86.4841 14.3935C87.5576 15.3569 88.6861 15.7973 90.0899 15.7973C91.8239 15.7973 93.1176 14.7789 93.1176 13.265C93.035 11.8612 92.1267 11.2007 90.1724 10.7327ZM62.6477 6.76916L58.6015 15.6872H59.6199L60.6934 13.3201H65.5102L66.5287 15.6872H67.6021L63.556 6.76916H62.6477ZM61.0787 12.4393L63.0881 7.95272L65.0974 12.4393H61.0787ZM105.889 6.76916L101.843 15.6872H102.861L103.935 13.3201H108.752L109.77 15.6872H110.844L106.797 6.76916H105.889ZM104.32 12.4393L106.329 7.95272L108.339 12.4393H104.32ZM76.355 9.46659C76.355 8.72342 76.0798 8.11787 75.6944 7.67748C75.1439 7.12698 74.2906 6.76916 73.1621 6.76916H69.3362V15.6321H70.3546V12.2191H72.8869L75.4742 15.6321H76.7128L74.0154 12.0264C75.3366 11.7512 76.355 10.9254 76.355 9.46659ZM70.3271 11.3108V7.705H73.0796C74.4833 7.705 75.3366 8.36559 75.3366 9.43906C75.3366 10.5676 74.3732 11.2282 73.0245 11.2282H70.3271V11.3108ZM6.60718 12.3292C6.99253 12.7145 7.68064 12.7145 8.12104 12.3292L14.8096 5.64064C15.6628 4.78737 16.9565 4.78737 17.7822 5.64064C18.1676 6.02599 18.8557 6.02599 19.2961 5.64064C19.6815 5.25529 19.6815 4.56717 19.2961 4.12678C17.6721 2.50282 14.9747 2.50282 13.3508 4.12678L6.60718 10.7878C6.16678 11.2557 6.16678 11.8612 6.60718 12.3292ZM16.984 7.8151C17.3694 7.42975 17.3694 6.74163 16.984 6.30124C16.5987 5.91589 15.9106 5.91589 15.4702 6.30124L8.80916 13.0448C7.95589 13.8981 6.66223 13.8981 5.83648 13.0448C4.98321 12.1915 4.98321 10.8979 5.83648 10.0721L12.4149 3.49371C11.5616 2.64044 10.268 2.64044 9.44223 3.49371L4.37767 8.55827C2.75371 10.1822 2.75371 12.8797 4.37767 14.5036C6.00163 16.1276 8.69906 16.1276 10.323 14.5036L16.984 7.8151ZM17.7822 8.55827L11.0387 15.3018C10.6533 15.6872 10.6533 16.3753 11.0387 16.8157C11.424 17.2011 12.1121 17.2011 12.5525 16.8157L19.2411 10.1272C20.0943 9.27391 21.388 9.27391 22.2137 10.1272C23.0395 10.9804 23.067 12.2741 22.2137 13.0999L15.6353 19.6232C16.4886 20.4765 17.7822 20.4765 18.608 19.6232L23.7276 14.5036C25.3516 12.8797 25.3516 10.1822 23.7276 8.55827C22.0486 6.93431 19.4062 6.93431 17.7822 8.55827ZM21.4981 10.7878C21.1127 10.4024 20.4246 10.4024 19.9842 10.7878L13.2957 17.5314C12.4424 18.3846 11.1488 18.3846 10.323 17.5314C9.93768 17.146 9.24956 17.146 8.80916 17.5314C8.42381 17.9167 8.42381 18.6048 8.80916 19.0452C10.4331 20.6692 13.1306 20.6692 14.7545 19.0452L21.443 12.3567C21.8834 11.8612 21.8834 11.2557 21.4981 10.7878Z" fill="black"/>
</g>
<defs>
<clipPath id="clip0_3_72">
<rect width="130.192" height="21.7446" fill="white" transform="translate(0.550537 0.54895)"/>
</clipPath>
</defs>
</svg>
