<svg width="46" height="50" viewBox="0 0 46 50" fill="none" xmlns="http://www.w3.org/2000/svg">
<path d="M18.0597 19.6914V17.743C17.3836 17.6359 16.7008 17.5772 16.0164 17.5674C9.39041 17.5533 3.52427 21.8491 1.53448 28.172C-0.455301 34.495 1.89341 41.3781 7.33211 45.164C5.33773 43.0286 4.00375 40.3613 3.49121 37.4841C2.97866 34.6069 3.30946 31.6428 4.44366 28.9495C5.57787 26.2563 7.467 23.949 9.88303 22.3062C12.2991 20.6635 15.1387 19.7554 18.0592 19.6917L18.0597 19.6914Z" fill="#25F4EE"/>
<path d="M18.4286 41.7622C22.1332 41.7572 25.1784 38.8373 25.3406 35.1346V2.09218H31.3742C31.2511 1.40173 31.1924 0.701325 31.1988 0L22.9459 0V33.0105C22.8086 36.7321 19.7562 39.68 16.0339 39.686C14.9216 39.6765 13.8273 39.4029 12.8414 38.8875C13.4804 39.7733 14.3196 40.4953 15.2906 40.9949C16.2615 41.4945 17.3368 41.7574 18.4286 41.7622ZM42.6442 13.3031V11.4665C40.4236 11.4674 38.2522 10.8118 36.4027 9.58219C38.024 11.4678 40.2149 12.774 42.6442 13.3031Z" fill="#25F4EE"/>
<path d="M42.6398 13.3032V19.6914C38.5289 19.6834 34.5247 18.3816 31.1944 15.9703V32.7551C31.1767 41.1304 24.3852 47.9109 16.0136 47.9109C12.9045 47.9165 9.87021 46.9567 7.32936 45.164C9.40127 47.3935 12.0963 48.9471 15.0633 49.6225C18.0304 50.2978 21.1319 50.0636 23.964 48.9503C26.7961 47.837 29.2275 45.8963 30.9414 43.3809C32.6553 40.8654 33.5723 37.8919 33.5729 34.8477V18.1105C36.9144 20.5059 40.9235 21.7907 45.0343 21.7836V13.5582C44.2295 13.5558 43.4271 13.4703 42.6398 13.3032Z" fill="#FE2C55"/>
<path d="M31.1985 32.7551V15.9703C34.5388 18.3679 38.5487 19.6529 42.6598 19.6435V13.2555C40.231 12.7423 38.0349 11.4532 36.4024 9.58233C35.0986 8.73853 33.9802 7.63778 33.1157 6.34724C32.2511 5.0567 31.6585 3.60345 31.3739 2.07617H25.3403V35.1351C25.2815 36.5741 24.7762 37.9591 23.8945 39.0975C23.0127 40.236 21.7985 41.0713 20.4203 41.4876C19.0422 41.9038 17.5687 41.8802 16.2047 41.42C14.8406 40.9599 13.6536 40.086 12.8088 38.92C11.4414 38.1998 10.3539 37.043 9.71931 35.6334C9.08467 34.2238 8.9393 32.6424 9.30632 31.1407C9.67333 29.6389 10.5317 28.303 11.7448 27.3455C12.958 26.3879 14.4563 25.8636 16.0016 25.8559C16.6946 25.8621 17.383 25.9697 18.0448 26.1754V19.7872C15.1086 19.837 12.2503 20.7404 9.81845 22.3873C7.38658 24.0343 5.48621 26.3535 4.34905 29.0622C3.21189 31.771 2.88707 34.7523 3.4142 37.6425C3.94132 40.5328 5.29762 43.2071 7.31772 45.3396C9.88353 47.0732 12.9221 47.9713 16.0177 47.9109C24.3892 47.9109 31.1808 41.1304 31.1985 32.7551Z" fill="black"/>
</svg>
