<svg width="102" height="27" viewBox="0 0 102 27" fill="none" xmlns="http://www.w3.org/2000/svg">
<path d="M33.0141 10.856C33.0141 9.04529 31.2533 7.12217 28.2063 7.12217C24.7847 7.12217 21.0258 9.63222 20.4514 14.6398C19.8645 19.6974 23.0114 21.9452 26.1833 21.9452C29.3552 21.9452 31.0161 20.7089 32.7144 19.0605C31.2533 17.2248 29.3677 18.074 29.0055 18.2613C28.6059 18.4611 28.0939 18.7358 27.0449 18.7358C25.8211 18.7358 24.5724 18.1864 24.5724 15.9011C32.4147 15.1269 33.0141 12.6668 33.0141 10.856ZM29.1304 11.1557C29.0805 11.7177 28.8557 12.6792 24.8846 13.2162C25.7212 10.2441 27.3197 10.0193 28.0565 10.0193C28.7433 10.0193 29.1804 10.5563 29.1304 11.1557ZM15.8434 11.6428C15.8434 11.6428 14.1575 16.9376 14.0202 17.3747C13.9702 16.9251 12.7339 7.42188 12.7339 7.42188C9.86173 7.42188 8.32574 9.46988 7.51403 11.6303C7.51403 11.6303 5.46603 16.9376 5.2912 17.3871C5.27871 16.975 4.97901 11.6927 4.97901 11.6927C4.80418 9.04529 2.38154 7.43437 0.420959 7.43437L2.79364 21.8328C5.8032 21.8203 7.42661 19.7848 8.27578 17.6244C8.27578 17.6244 10.0865 12.9415 10.1614 12.7292C10.1739 12.929 11.4602 21.8328 11.4602 21.8328C14.4822 21.8328 16.1056 19.9222 16.9798 17.8367L21.2131 7.43437C18.2286 7.43437 16.6551 9.46988 15.8434 11.6428ZM44.1033 7.0972C42.2426 7.0972 40.819 8.10871 39.6202 9.59476V9.58227L40.6941 0.928223C38.2215 0.928223 36.211 3.07612 35.8239 6.273L33.9507 21.7204C35.3743 21.7204 36.8853 21.3083 37.697 20.2593C38.4213 21.1959 39.5078 21.9452 41.1187 21.9452C45.2896 21.9452 48.1493 17.0999 48.1493 12.5544C48.1244 8.40841 46.1138 7.0972 44.1033 7.0972ZM43.7162 14.5274C43.2791 17.0625 41.868 18.7858 40.5068 18.7858C39.1331 18.7858 38.5462 18.1739 38.5462 18.1739C38.8084 15.951 38.9708 14.5899 39.4703 13.416C39.9698 12.2422 41.1562 10.369 42.3924 10.369C43.6038 10.369 44.1532 11.9799 43.7162 14.5274ZM58.5641 7.43437H55.6545L55.667 7.28451C55.8668 5.38637 56.3163 4.38734 57.8024 4.225C58.8139 4.1251 59.2635 3.60061 59.3759 3.02617C59.4633 2.57661 59.738 1.01564 59.738 1.01564C53.8937 0.978174 52.058 3.50071 51.5835 7.34695L51.571 7.43437H51.5085C50.5595 7.43437 49.5105 8.50832 49.3357 9.86949L49.2732 10.369H51.2213L49.5854 23.8808L49.0859 26.3034C49.1483 26.3034 49.2233 26.3159 49.2857 26.3159C52.0205 26.216 53.7688 24.0556 54.156 20.9212L55.4297 10.369H56.3413C57.2404 10.369 58.2894 9.46988 58.4767 7.97134L58.5641 7.43437ZM73.6994 7.18461C70.3401 7.18461 67.1682 9.65719 66.1942 13.5409C65.2201 17.4246 66.6937 22.0201 71.6389 22.0201C76.5715 22.0201 79.4188 17.2373 79.4188 13.2537C79.4188 9.29505 76.7339 7.18461 73.6994 7.18461ZM75.0605 14.4026C74.8857 16.1633 74.1115 18.8357 71.9885 18.8357C69.8531 18.8357 70.1528 15.7138 70.3651 14.2277C70.5899 12.6418 71.4765 10.3815 73.3872 10.3815C75.098 10.3815 75.2603 12.417 75.0605 14.4026ZM96.0151 11.6428C96.0151 11.6428 94.3292 16.9376 94.1918 17.3747C94.1419 16.9251 92.9056 7.42188 92.9056 7.42188C90.0334 7.42188 88.4974 9.46988 87.6857 11.6303C87.6857 11.6303 85.6377 16.9376 85.4629 17.3871C85.4504 16.975 85.1507 11.6927 85.1507 11.6927C84.9758 9.04529 82.5532 7.43437 80.5926 7.43437L82.9528 21.8328C85.9624 21.8203 87.5858 19.7848 88.435 17.6244C88.435 17.6244 90.2457 12.9415 90.3081 12.7292C90.3206 12.929 91.6069 21.8328 91.6069 21.8328C94.6289 21.8328 96.2523 19.9222 97.1265 17.8367L101.36 7.43437C98.3877 7.43437 96.8143 9.46988 96.0151 11.6428ZM61.3115 1.01564L58.8639 20.7588L58.3643 23.194C58.4268 23.194 58.5017 23.2065 58.5641 23.2065C61.1991 23.169 63.0722 20.8587 63.4219 17.9491L64.833 6.62266C65.2576 3.16354 63.1971 1.01564 61.3115 1.01564Z" fill="#4353FF"/>
</svg>
