<svg width="105" height="37" viewBox="0 0 105 37" fill="none" xmlns="http://www.w3.org/2000/svg">
<path d="M53.6045 14.0606C51.6187 14.0606 50.2553 15.6018 50.0478 17.4987H57.1908C56.9537 15.5722 55.7385 14.0606 53.6045 14.0606ZM71.1212 14.4756C68.7204 14.4756 67.5941 16.6985 67.5941 18.8918C67.5941 21.0554 68.6611 23.5451 71.1212 23.5451C73.4626 23.5451 74.6186 21.1147 74.6186 19.04C74.5593 16.9356 73.433 14.4756 71.1212 14.4756ZM36.1174 14.0606C34.1316 14.0606 32.7682 15.6018 32.5607 17.4987H39.7037C39.437 15.5722 38.2218 14.0606 36.1174 14.0606ZM99.7229 7.74751C97.4703 7.74751 95.6623 9.02197 94.8324 11.156L94.2693 12.638L93.7358 11.156C92.9652 9.05161 91.0979 7.71787 88.8453 7.71787C88.5489 7.71787 88.2822 7.74753 87.9858 7.80679V5.79133C87.9858 2.73851 85.7925 0.485962 82.8879 0.485962C79.9832 0.485962 77.7899 2.76815 77.7899 5.79133V9.70372C76.1005 8.28104 74.0258 7.54007 71.7732 7.54007C71.2693 7.54007 70.7655 7.56972 70.2913 7.65859V5.82101C70.2913 2.76818 68.1276 0.515601 65.2823 0.515601C62.4369 0.515601 60.2733 2.79782 60.2733 5.82101V10.1187C58.3467 8.45888 55.9756 7.56971 53.397 7.56971C50.3442 7.56971 47.5285 8.84417 45.513 11.156C45.187 11.5117 44.8906 11.897 44.6238 12.3416C44.3571 11.9563 44.0607 11.571 43.7347 11.1857C41.6599 8.84417 38.8146 7.56971 35.7914 7.56971C33.5092 7.56971 31.3752 8.28104 29.5968 9.6148C28.7076 8.34032 27.2257 7.56971 25.4177 7.56971C23.1059 7.56971 21.1497 9.14057 20.5273 11.4524C19.4306 7.95501 16.7038 7.56971 15.5479 7.56971C14.392 7.56971 11.6652 7.95501 10.5685 11.4524C9.97576 9.14057 8.04922 7.56971 5.67809 7.56971C2.83274 7.56971 0.550537 9.61481 0.550537 12.223C0.550537 13.379 0.817285 14.2977 1.17295 15.3055L5.05567 26.3016C6.35979 29.9472 8.99767 30.4807 10.4796 30.4807C12.7618 30.4807 14.5698 29.2951 15.5183 27.2204C16.4371 29.3248 18.2451 30.5103 20.5569 30.5103C22.0389 30.5103 24.6767 29.9768 25.9809 26.3016L26.4254 25.0271C28.3223 28.406 31.8494 30.5103 36.1471 30.5103C39.2592 30.5103 43.379 29.1766 45.2759 26.7462C47.2913 29.0877 50.3145 30.5103 53.8119 30.5103C56.1831 30.5103 59.1766 29.7397 61.281 28.2578C62.1702 29.5322 63.6225 30.3028 65.3119 30.3028C66.3196 30.3028 67.2088 30.0658 67.9498 29.6212C69.0761 30.1843 70.3209 30.4807 71.625 30.4807C74.174 30.4807 76.5451 29.5323 78.3531 27.7243C79.183 29.4137 80.8428 30.4807 82.8582 30.4807C85.0219 30.4807 86.8002 29.1766 87.5412 27.2797C87.5412 27.2797 86.8002 31.3995 86.8002 32.1701C86.8002 34.8673 89.0232 36.9124 91.9574 36.9124C94.0322 36.9124 95.8105 35.5786 96.67 33.3557L104.169 14.7127C104.465 14.031 104.613 13.29 104.613 12.4602C104.673 9.67408 102.094 7.74754 99.7229 7.74754V7.74751ZM27.2553 14.3274L23.343 25.3531C22.8688 26.6869 22.0685 27.665 20.5865 27.665C19.1935 27.665 18.3636 26.8944 17.9487 25.5606L15.6072 18.2101H15.5775L13.2361 25.5606C12.8211 26.8944 11.9912 27.665 10.5982 27.665C9.08659 27.665 8.31597 26.6572 7.84174 25.3531L3.95903 14.3867C3.633 13.4678 3.4848 12.8751 3.4848 12.223C3.4848 11.1856 4.43325 10.3854 5.76701 10.3854C6.89329 10.3854 7.66391 11.0967 7.93066 12.1934L10.5685 20.9369H10.6278L13.2953 12.4008C13.651 11.156 14.3031 10.3854 15.6072 10.3854C16.9113 10.3854 17.5634 11.1264 17.919 12.4008L20.5865 20.9369H20.6458L23.2837 12.1934C23.5208 11.0967 24.3507 10.3854 25.4474 10.3854C26.7811 10.3854 27.7296 11.1856 27.7296 12.6083C27.6999 13.1122 27.4628 13.616 27.2553 14.3274H27.2553ZM36.5916 23.8119C38.9035 23.8119 40.4744 21.9742 41.6896 21.9742C42.638 21.9742 43.5272 22.9227 43.5272 23.9008C43.5272 25.8273 39.5555 27.6946 36.2063 27.6946C31.1381 27.6946 27.8185 24.0193 27.8185 19.0992C27.8185 14.5645 31.1381 10.4446 35.8507 10.4446C40.7115 10.4446 43.9125 14.8609 43.9125 18.625C43.9125 19.9588 43.3197 20.6405 41.9563 20.6405H32.3829C32.6793 22.7745 34.5169 23.8119 36.5916 23.8119ZM59.5916 20.5812H50.0181C50.3145 22.7745 52.1522 23.7822 54.2565 23.7822C56.5684 23.7822 58.1393 21.9446 59.3545 21.9446C60.3029 21.9446 61.1921 22.8931 61.1921 23.8712C61.1921 25.7977 57.2204 27.665 53.8712 27.665C48.8029 27.665 45.4834 23.9897 45.4834 19.0696C45.4834 14.5349 48.8029 10.415 53.5156 10.415C58.3764 10.415 61.5774 14.8312 61.5774 18.5954C61.5477 19.9292 60.9253 20.5812 59.5916 20.5812ZM71.6843 27.6946C70.1431 27.6946 68.424 27.0129 67.5941 25.6495C67.3274 26.8351 66.5864 27.5168 65.3712 27.5168C64.0671 27.5168 63.1483 26.509 63.1483 25.0271V5.85061C63.1483 4.33902 64.0078 3.36093 65.3415 3.36093C66.6457 3.36093 67.5348 4.36866 67.5348 5.85061V11.9563C68.8093 10.9189 70.2616 10.3854 71.8325 10.3854C76.634 10.3854 79.0941 14.8905 79.0941 19.2771C79.0644 23.4562 76.1894 27.6946 71.6843 27.6946ZM85.1997 25.1753C85.1997 26.6869 84.2513 27.665 82.9471 27.665C81.643 27.665 80.6946 26.6572 80.6946 25.1753V5.79133C80.6946 4.27975 81.643 3.30165 82.9471 3.30165C84.2513 3.30165 85.1997 4.30939 85.1997 5.79133V25.1753ZM101.649 13.6457L94.1804 32.3479C93.8247 33.2668 93.1133 34.1263 92.076 34.1263C90.5348 34.1263 89.7345 33.1778 89.7345 32.1997C89.7345 31.7848 89.8531 31.3106 90.0013 30.8956L91.9574 26.0348L87.0077 13.6753C86.8891 13.3493 86.8002 12.9936 86.8002 12.5194C86.8002 11.3931 87.9858 10.5928 88.9046 10.5928C90.0013 10.5928 90.7719 11.1856 91.1275 12.1934L94.21 20.6109L97.5296 12.1934C97.8852 11.1856 98.6855 10.5928 99.7525 10.5928C100.671 10.5928 101.857 11.3931 101.857 12.5194C101.887 12.964 101.798 13.29 101.649 13.6457Z" fill="#0099D6"/>
</svg>
