<svg width="56" height="23" viewBox="0 0 56 23" fill="none" xmlns="http://www.w3.org/2000/svg">
<path d="M31.7704 1.10137C30.676 1.68607 30.2852 2.65005 30.2852 5.32071C30.2852 5.32071 30.8324 4.78341 31.6453 4.48315C32.2393 4.27772 32.7396 3.94587 33.0366 3.72463C33.959 3.04511 34.084 2.17597 34.084 0.706313C34.084 0.706313 32.5833 0.658876 31.7704 1.10137Z" fill="black"/>
<path d="M25.3601 1.73345C24.4846 2.52358 24.2189 3.77199 24.2189 3.77199L21.2799 15.1816L18.8568 5.82635C18.6223 4.84657 18.1845 3.59817 17.5123 2.77642C16.6681 1.73344 14.9329 1.67023 14.7453 1.67023C14.5577 1.67023 12.8068 1.73344 11.947 2.79223C11.2748 3.62977 10.837 4.86238 10.6025 5.84215L8.17943 15.1974L5.2717 3.77199C5.2717 3.77199 5.02157 2.50778 4.13049 1.73345C2.69226 0.453426 0.550537 0.722073 0.550537 0.722073L6.13151 22.119C6.13151 22.119 7.97621 22.2612 8.89855 21.7713C10.1023 21.155 10.6963 20.6651 11.4311 17.7416C12.0877 15.15 13.9167 7.53304 14.0887 6.97995C14.1669 6.7113 14.2763 6.06339 14.7453 6.06339C15.2299 6.06339 15.3237 6.6955 15.4019 6.97995C15.5738 7.51724 17.3873 15.15 18.0595 17.7416C18.7942 20.6493 19.3727 21.1234 20.592 21.7713C21.5144 22.2612 23.3591 22.119 23.3591 22.119L28.94 0.737876C28.94 0.737876 26.7983 0.46923 25.3601 1.73345ZM34.0833 4.21448C34.0833 4.21448 33.7394 4.75177 32.9421 5.22585C32.4262 5.5103 31.9416 5.71573 31.4101 5.96857C30.5346 6.39525 30.2845 6.88514 30.2845 7.61207V22.119C30.2845 22.119 31.7071 22.2928 32.6138 21.8345C33.8019 21.2182 34.0677 20.6335 34.0833 17.9629V4.21448ZM48.0279 11.4679L55.1097 0.785266C55.1097 0.785266 52.1238 0.263792 50.6386 1.63863C49.685 2.50778 48.622 4.07225 48.622 4.07225L46.0269 7.8965C45.8862 8.08613 45.7455 8.30738 45.4797 8.30738C45.214 8.30738 45.042 8.10194 44.9326 7.8965L42.3062 4.08805C42.3062 4.08805 41.2588 2.52358 40.2896 1.65443C38.8201 0.279595 35.8186 0.801069 35.8186 0.801069L42.9159 11.4521L35.8186 22.0874C35.8186 22.0874 38.9452 22.4982 40.4147 21.1234C41.3683 20.2542 42.2906 18.8162 42.2906 18.8162L44.8857 15.0077C45.0264 14.8181 45.1671 14.5969 45.4328 14.5969C45.6986 14.5969 45.8706 14.8023 45.98 15.0077L48.5751 18.8162C48.5751 18.8162 49.5443 20.2226 50.4823 21.1234C51.9518 22.4982 55.0315 22.0874 55.0315 22.0874L48.0279 11.4679Z" fill="black"/>
</svg>
