<svg width="131" height="30" viewBox="0 0 131 30" fill="none" xmlns="http://www.w3.org/2000/svg">
<path d="M76.0597 11.993H70.9347V12.5371C72.5378 12.5371 72.7955 12.8809 72.7955 14.9154V18.583C72.7955 20.6173 72.538 20.9898 70.9347 20.9898C69.7039 20.818 68.8733 20.1588 67.7281 18.8982L66.4112 17.4657C68.1862 17.1501 69.1308 16.033 69.1308 14.7721C69.1308 13.1965 67.7855 11.993 65.2658 11.993H60.2269V12.5371C61.8299 12.5371 62.0877 12.8809 62.0877 14.9154V18.583C62.0877 20.6173 61.8299 20.9898 60.2269 20.9898V21.5341H65.9242V20.9898C64.3212 20.9898 64.0634 20.6173 64.0634 18.583V17.5518H64.55L67.7281 21.5341H76.0597C80.1538 21.5341 81.9289 19.3568 81.9289 16.7491C81.9289 14.1419 80.154 11.993 76.0597 11.993ZM64.0637 16.663V12.8527H65.2373C66.5255 12.8527 67.0984 13.7409 67.0984 14.7723C67.0984 15.7753 66.5255 16.6632 65.2373 16.6632H64.0637V16.663ZM76.1458 20.646H75.9452C74.9147 20.646 74.7715 20.3883 74.7715 19.0702V12.8527C74.7715 12.8527 76.0312 12.8527 76.1458 12.8527C79.1233 12.8527 79.667 15.03 79.667 16.7206C79.667 18.4682 79.1231 20.646 76.1458 20.646Z" fill="#00749A"/>
<path d="M44.2815 17.7235L46.2571 11.8781C46.8299 10.1877 46.5722 9.70084 44.7398 9.70084V9.12756H50.1223V9.70084C48.3187 9.70084 47.8893 10.1306 47.1735 12.2222L43.9093 22.0212H43.5373L40.6166 13.0529L37.6393 22.0212H37.267L34.0891 12.2222C33.402 10.1306 32.9439 9.70084 31.2833 9.70084V9.12756H37.6393V9.70084C35.9499 9.70084 35.4916 10.1018 36.0931 11.8781L38.0113 17.7235L40.903 9.12756H41.4472L44.2815 17.7235Z" fill="#00749A"/>
<path d="M54.0144 21.9065C50.8652 21.9065 48.2884 19.5859 48.2884 16.7489C48.2884 13.9412 50.8654 11.6201 54.0144 11.6201C57.1639 11.6201 59.7405 13.9412 59.7405 16.7489C59.7405 19.5859 57.1639 21.9065 54.0144 21.9065ZM54.0144 12.509C51.3807 12.509 50.4643 14.8868 50.4643 16.7492C50.4643 18.6406 51.3807 20.9899 54.0144 20.9899C56.6773 20.9899 57.5935 18.6406 57.5935 16.7492C57.5935 14.8868 56.6773 12.509 54.0144 12.509Z" fill="#00749A"/>
<path d="M88.4778 20.8702V21.4432H81.9214V20.8702C83.8398 20.8702 84.1834 20.3833 84.1834 17.5176V12.9336C84.1834 10.068 83.8398 9.60977 81.9214 9.60977V9.0365H87.8478C90.7966 9.0365 92.4291 10.5551 92.4291 12.5898C92.4291 14.5668 90.7966 16.1139 87.8478 16.1139H86.2158V17.5174C86.2158 20.3833 86.5594 20.8702 88.4778 20.8702ZM87.8478 10.068H86.2158V15.0537H87.8478C89.4513 15.0537 90.1956 13.9364 90.1956 12.5898C90.1956 11.2145 89.4513 10.068 87.8478 10.068Z" fill="#464342"/>
<path d="M112.62 18.841L112.477 19.3566C112.219 20.3021 111.904 20.646 109.871 20.646H109.47C107.982 20.646 107.724 20.3021 107.724 18.2679V16.9501C109.957 16.9501 110.129 17.1503 110.129 18.6405H110.673V14.3711H110.129C110.129 15.861 109.957 16.0615 107.724 16.0615V12.8527H109.299C111.332 12.8527 111.646 13.1965 111.904 14.1421L112.047 14.6862H112.505L112.305 11.993H103.888V12.5371C105.491 12.5371 105.749 12.8809 105.749 14.9154V18.583C105.749 20.444 105.53 20.9128 104.266 20.9797C103.064 20.796 102.239 20.1403 101.111 18.8982L99.7938 17.4657C101.569 17.1501 102.514 16.033 102.514 14.7721C102.514 13.1965 101.168 11.993 98.6488 11.993H93.6099V12.5371C95.2129 12.5371 95.4706 12.8809 95.4706 14.9154V18.583C95.4706 20.6173 95.2132 20.9898 93.6099 20.9898V21.5341H99.3075V20.9898C97.7044 20.9898 97.4464 20.6173 97.4464 18.583V17.5518H97.9332L101.111 21.5341H112.878L113.05 18.8412H112.62V18.841ZM97.4462 16.663V12.8527H98.6199C99.9083 12.8527 100.481 13.7409 100.481 14.7723C100.481 15.7753 99.9083 16.6632 98.6199 16.6632H97.4462V16.663Z" fill="#464342"/>
<path d="M118.434 21.9062C117.289 21.9062 116.286 21.3047 115.857 20.932C115.714 21.0755 115.456 21.5052 115.399 21.9062H114.855V17.9527H115.428C115.657 19.8436 116.974 20.9609 118.663 20.9609C119.579 20.9609 120.324 20.4453 120.324 19.5859C120.324 18.8411 119.665 18.2678 118.491 17.7235L116.859 16.9499C115.714 16.4051 114.855 15.4596 114.855 14.1991C114.855 12.8238 116.144 11.6493 117.919 11.6493C118.864 11.6493 119.665 11.9931 120.152 12.3941C120.295 12.2795 120.438 11.9642 120.524 11.6201H121.068V15.0014H120.467C120.266 13.6546 119.522 12.5372 118.005 12.5372C117.203 12.5372 116.458 12.9956 116.458 13.7122C116.458 14.4571 117.06 14.8581 118.434 15.4885L120.009 16.262C121.383 16.921 121.927 17.9816 121.927 18.8411C121.927 20.6458 120.352 21.9062 118.434 21.9062Z" fill="#464342"/>
<path d="M127.251 21.9062C126.106 21.9062 125.104 21.3047 124.675 20.932C124.531 21.0755 124.274 21.5052 124.217 21.9062H123.673V17.9527H124.245C124.474 19.8436 125.791 20.9609 127.48 20.9609C128.397 20.9609 129.141 20.4453 129.141 19.5859C129.141 18.8411 128.483 18.2678 127.309 17.7235L125.677 16.9499C124.531 16.4051 123.672 15.4596 123.672 14.1991C123.672 12.8238 124.961 11.6493 126.736 11.6493C127.681 11.6493 128.482 11.9931 128.969 12.3941C129.112 12.2795 129.255 11.9642 129.341 11.6201H129.885V15.0014H129.284C129.083 13.6546 128.339 12.5372 126.822 12.5372C126.02 12.5372 125.276 12.9956 125.276 13.7122C125.276 14.4571 125.877 14.8581 127.251 15.4885L128.826 16.262C130.2 16.921 130.744 17.9816 130.744 18.8411C130.744 20.6458 129.169 21.9062 127.251 21.9062Z" fill="#464342"/>
<path d="M2.65112 15.1377C2.65112 20.1568 5.56574 24.4942 9.79217 26.5497L3.74811 9.97729C3.04508 11.5543 2.65112 13.2994 2.65112 15.1377Z" fill="#464342"/>
<path d="M23.8743 14.4977C23.8743 12.9306 23.3118 11.8454 22.8294 11.0007C22.1871 9.95618 21.5851 9.07166 21.5851 8.02717C21.5851 6.86156 22.4685 5.77653 23.7128 5.77653C23.769 5.77653 23.8222 5.78353 23.877 5.78667C21.6227 3.71989 18.6194 2.45801 15.3207 2.45801C10.8942 2.45801 6.99972 4.73084 4.73413 8.17338C5.0314 8.18231 5.31156 8.18858 5.54952 8.18858C6.87483 8.18858 8.92632 8.02765 8.92632 8.02765C9.60935 7.98736 9.68988 8.99131 9.00757 9.07214C9.00757 9.07214 8.32117 9.15297 7.55737 9.19302L12.1715 22.9277L14.9443 14.6053L12.9702 9.19254C12.2879 9.15248 11.6416 9.07166 11.6416 9.07166C10.9588 9.0316 11.0388 7.98687 11.7216 8.02717C11.7216 8.02717 13.8141 8.1881 15.0591 8.1881C16.3842 8.1881 18.4359 8.02717 18.4359 8.02717C19.1194 7.98687 19.1997 8.99083 18.5172 9.07166C18.5172 9.07166 17.8293 9.15248 17.067 9.19254L21.6459 22.8232L22.9097 18.5968C23.4575 16.843 23.8743 15.5832 23.8743 14.4977Z" fill="#464342"/>
<path d="M15.5433 16.2469L11.7417 27.302C12.8768 27.636 14.0772 27.8186 15.321 27.8186C16.7965 27.8186 18.2115 27.5633 19.5286 27.0998C19.4946 27.0455 19.4638 26.9879 19.4385 26.9252L15.5433 16.2469Z" fill="#464342"/>
<path d="M26.4389 9.05396C26.4934 9.45785 26.5242 9.89143 26.5242 10.3578C26.5242 11.6445 26.2841 13.091 25.5608 14.8996L21.6905 26.098C25.4574 23.8997 27.9911 19.8156 27.9911 15.1378C27.9913 12.9332 27.4286 10.8602 26.4389 9.05396Z" fill="#464342"/>
<path d="M15.3206 0.357056C7.1766 0.357056 0.550537 6.98759 0.550537 15.1377C0.550537 23.2888 7.1766 29.9191 15.3206 29.9191C23.4644 29.9191 30.0914 23.2888 30.0914 15.1377C30.0912 6.98759 23.4644 0.357056 15.3206 0.357056ZM15.3206 29.2416C7.55006 29.2416 1.22778 22.9145 1.22778 15.1377C1.22778 7.36133 7.54982 1.0348 15.3206 1.0348C23.0909 1.0348 29.4127 7.36133 29.4127 15.1377C29.4127 22.9145 23.0909 29.2416 15.3206 29.2416Z" fill="#464342"/>
</svg>
